# xmcd
#
# Track frame offsets: 
#        150
#        13194
#        27989
#        39478
#        54502
#        70679
#        85719
#        104541
#        117150
#        130302
#        145035
#        163451
#        175569
#        189549
#
# Disc length: 2739 seconds
#
# Revision: 0
# Processed by: cddbd v1.5.2PL0 Copyright (c) Steve Scherf et al.
# Submitted via: ExactAudioCopy v0.99pb5
#
DISCID=bb0ab10e
DTITLE=Various Artist - southern Nights Classic Country Crossovers [CD2 of
DTITLE=2)
DYEAR=2010
DGENRE=Country
TTITLE0=Here You Come Again - Dolly Parton
TTITLE1=Let Your Love Flow - Bellamy Brothers
TTITLE2=On The Road Again - Willie Nelson
TTITLE3=Luckenbach, Texas (Back to the Basics of love) - Waylon Jennin
TTITLE3=gs
TTITLE4=I wouldn't Have Missed It For The World - Ronnie Milsap
TTITLE5=Love In The First Degree - Alabama
TTITLE6=Islands In The Stream - Dolly Parton and Kenny Rogers
TTITLE7=East Bound And Down - Jerry Reed
TTITLE8=Huston (Means I'm One Day Closer To You) - Larry Gatlin and Th
TTITLE8=e Gatlin Brothers
TTITLE9=(There's) No Gettin' Over Me - Ronnie Milsap
TTITLE10=Baby I Lied - Deborah Allen
TTITLE11=Jolene - Dolly Parton
TTITLE12=You Don't Know Me - Mickey Gilley
TTITLE13=Always On My Mind - Willie Nelson
EXTD=
EXTT0=
EXTT1=
EXTT2=
EXTT3=
EXTT4=
EXTT5=
EXTT6=
EXTT7=
EXTT8=
EXTT9=
EXTT10=
EXTT11=
EXTT12=
EXTT13=
PLAYORDER=
